<svg xmlns="http://www.w3.org/2000/svg" version="1.1" xmlns:xlink="http://www.w3.org/1999/xlink" viewBox="0 0 1422 800" style="overflow: hidden; display: block;" width="1422" height="800"><defs></defs><g id="two-0" transform="matrix(1 0 0 1 0 0)" opacity="1"></g><path d="M 190.59104473915102 662.9359202716149 Q 190.59104473915102 662.9359202716149 189.17971227737098 657.7922546760451 187.76837981559092 652.6485890804754 189.5465656836579 646.8208366331564 191.32475155172483 640.9930841858373 192.66613530903373 635.7484901905038 194.00751906634267 630.5038961951705 197.82132819562668 623.4587915547247 201.63513732491066 616.4136869142789 205.66191335281604 611.0061416127262 209.68868938072143 605.5985963111734 213.82556693483315 600.8285314111904 217.9624444889449 596.0584665112073 224.18937444034793 590.8717872520801 230.41630439175097 585.6851079929531 237.79196604642988 580.6778246067354 245.1676277011088 575.6705412205177 252.93794134297997 571.2195599164793 260.7082549848511 566.7685786124409 265.25375377964616 564.6768780029961 269.7992525744412 562.5851773935512 278.411515401183 559.0154221772317 287.02377822792477 555.4456669609121 292.0715271201194 553.6275652036232 297.11927601231406 551.8094634463343 302.25010718339473 550.3853289052756 307.3809383544754 548.9611943642169 318.18318697139523 546.2679677115491 328.9854355883151 543.5747410588813 334.39488840387503 542.5973607355123 339.80434121943495 541.6199804121434 346.2390321149822 540.7159093977201 352.67372301052944 539.8118383832968 358.6826992152691 538.9800810149269 364.6916754200088 538.148323646557 371.22618981913826 537.3309514858474 377.76070421826773 536.513579325138 384.41952466976466 535.7140497416278 391.07834512126163 534.9145201581176 398.9508467418236 534.5699074922074 406.8233483623856 534.2252948262974 414.00420766965766 534.1154493071311 421.1850669769297 534.0056037879649 428.5573362070793 533.5851729903836 435.9296054372289 533.1647421928024 443.9612308694404 532.9974184287908 451.9928563016519 532.830094664779 460.26552973202155 532.8400372868623 468.5382031623912 532.8499799089454 476.89805397825637 532.9224469017893 485.2579047941215 532.9949138946331 493.1732097543377 533.0266970705923 501.0885147145539 533.0584802465513 509.3035049857965 533.125564375101 517.518495257039 533.1926485036507 525.8600055860949 533.2654698661192 534.2015159151507 533.3382912285877 543.5252406184575 533.9714172258032 552.8489653217641 534.6045432230188 561.221146694671 534.8704186270663 569.5933280675779 535.1362940311138 578.905487366575 535.8378796276295 588.2176466655723 536.539465224145 597.0802546295733 536.8845340617568 605.9428625935743 537.2296028993685 615.0026660176038 537.8537959863336 624.0624694416333 538.4779890732987 633.6621372103954 539.3660051912849 643.2618049791574 540.2540213092711 652.3113010956979 540.6399750073745 661.3607972122383 541.0259287054779 671.3887954604293 541.7456091071904 681.4167937086203 542.4652895089029 691.1293912380634 542.7839388464994 700.8419887675066 543.1025881840959 710.7936712291108 543.262791482426 720.7453536907151 543.4229947807561 731.1472640568402 544.0025194588416 741.5491744229654 544.5820441369272 751.437254938669 544.8274016779426 761.3253354543724 545.0727592189579 771.8296962300369 545.1874626365162 782.3340570057015 545.3021660540745 792.6222103000595 545.3574359510519 802.9103635944174 545.4127058480294 813.1016054760257 545.4407018082425 823.292847357634 545.4686977684554 833.5982621950524 545.0061414457714 843.9036770324708 544.5435851230873 853.9377940760219 544.3404857570358 863.9719111195728 544.1373863909845 873.7174581033169 543.5804780259809 883.4630050870609 543.0235696609775 893.4275388189874 542.3058629604546 903.3920725509139 541.5881562599318 913.4473209437734 540.799501994793 923.502569336633 540.0108477296541 933.5953241022414 539.1914807123121 943.6880788678498 538.3721136949702 952.9252515463472 537.0968637717032 962.1624242248446 535.8216138484362 971.9537475401007 534.3094966771013 981.7450708553569 532.7973795057663 991.1861255460367 531.1948128644087 1000.6271802367165 529.592246223051 1010.1809232228853 527.5116382918613 1019.7346662090541 525.4310303606718 1029.4011951854113 523.5226223139694 1039.0677241617684 521.614214267267 1048.1628331080237 519.4238520077745 1057.257942054279 517.2334897482821 1065.5203923162685 514.4555845174795 1073.7828425782582 511.67767928667683 1082.462001101247 508.8773709521272 1091.141159624236 506.0770626175775 1099.3155782237402 503.0486956824783 1107.4899968232444 500.0203287473791 1115.152480090137 496.7692701341616 1122.81496335703 493.5182115209442 1129.368803363619 489.88563113042187 1135.922643370208 486.2530507398995 1142.8930241404187 482.52215955212404 1149.863404910629 478.7912683643486 1155.95562459661 475.2817208404965 1162.0478442825909 471.7721733166445 1166.827682924737 468.2020890305436 1171.607521566883 464.6320047444427 1176.0774390074284 461.06958618803935 1180.5473564479737 457.5071676316359 1184.3974516314656 453.8897883896303 1188.2475468149576 450.2724091476248 1192.2818971012782 446.2990260392361 1196.3162473875989 442.3256429308473 1199.5757657351992 438.55593160638955 1202.8352840827997 434.7862202819318 1206.1244554820937 430.7667489386174 1209.4136268813875 426.747277595303 1212.7404926045738 422.6121506165454 1216.06735832776 418.47702363778785 1219.7934019033783 414.4104764878848 1223.5194454789967 410.3439293379818 1229.5252133477024 403.08575288481865 1235.5309812164082 395.8275764316555 1241.253713536385 389.6391603358013 1246.9764458563616 383.4507442399472 1250.8820057646758 379.50272765379464 1254.7875656729902 375.5547110676421 1259.901760995958 370.4562057330854 1265.0159563189259 365.35770039852883 1269.7117259551867 360.8402553782013 1274.4074955914475 356.3228103578738 1274.4096356844166 356.3273292075154 1274.4117757773856 356.33184805715706 1274.4139158703547 356.33636690679873 1274.4160559633237 356.34088575644034 1274.5885653996284 358.50356758979217 1274.7610748359332 360.66624942314394 1275.6304268854115 365.9165932260148 1276.49977893489 371.1669370288857 1276.1332734317684 376.2474757099896 1275.7667679286467 381.3280143910935 1274.3922935916153 387.0338847881749 1273.017819254584 392.73975518525623 1269.736885876022 399.7645719562448 1266.4559524974595 406.7893887272334 1264.1015935779587 411.3736777206906 1261.7472346584577 415.95796671414774 1259.0084199207092 420.1124564269331 1256.2696051829607 424.2669461397184 1249.7803782351998 432.52165750562654 1243.291151287439 440.7763688715347 1239.7245662539954 445.05833713288416 1236.1579812205516 449.3403053942336 1232.3563183487308 453.71453427695224 1228.5546554769098 458.0887631596709 1224.2587426006558 462.65774625779545 1219.9628297244014 467.22672935592 1215.3487446402555 471.46257396174144 1210.7346595561096 475.69841856756295 1205.646642218099 479.9856807791449 1200.5586248800885 484.2729429907268 1195.4088365025768 487.8984510450164 1190.259048125065 491.5239590993059 1183.8155971700357 495.7376760237969 1177.3721462150068 499.9513929482879 1170.7500353115865 503.34548334009776 1164.1279244081666 506.7395737319077 1157.1579053080955 510.12356917818056 1150.1878862080246 513.5075646244535 1142.1987199136756 517.4869266759476 1134.2095536193267 521.4662887274417 1125.9111331013837 524.7144944567674 1117.6127125834405 527.9627001860931 1108.7722604897644 531.0977526541744 1099.9318083960884 534.2328051222559 1091.3984365541498 536.8056515156634 1082.8650647122113 539.3784979090709 1073.4497378747392 542.3966048656031 1064.0344110372669 545.4147118221352 1054.3572098391082 547.7330580123919 1044.6800086409496 550.0514042026487 1035.2811180679505 551.9050171004387 1025.8822274949512 553.7586299982289 1015.6807165897119 555.9653111230143 1005.4792056844725 558.1719922477998 995.824211897896 559.8104597420545 986.1692181113195 561.448927236309 976.1333846234725 562.9983303829131 966.0975511356254 564.5477335295171 956.0694920152312 565.9115358938637 946.0414328948368 567.2753382582104 935.9088698765181 568.1010636811633 925.7763068581993 568.9267891041162 915.6294740855227 569.7266781153146 905.4826413128461 570.5265671265129 895.2997682754502 571.2643468459563 885.1168952380543 572.0021265653997 874.8436810906263 572.5877122411719 864.5704669431983 573.1732979169439 854.8884358977784 573.3761573577724 845.2064048523584 573.5790167986008 834.2256049767569 574.0716576685752 823.2448051011554 574.5642985385497 813.0199176373308 574.557554839485 802.795030173506 574.5508111404201 792.432133922314 574.5243406626264 782.0692376711221 574.4978701848325 771.3697954891968 574.4202433088116 760.6703533072716 574.3426164327906 750.3362970672949 574.1354321065605 740.0022408273184 573.9282477803306 730.2095548002533 573.4429680648973 720.4168687731881 572.9576883494641 710.238755694519 572.8947320109303 700.0606426158499 572.8317756723965 689.7959172001188 572.6253435114897 679.5311917843877 572.418911350583 669.9406261346963 571.9031058734643 660.350060485005 571.3873003963455 650.6250490614912 571.148490962732 640.9000376379774 570.9096815291184 631.4291155147002 570.3276667489472 621.958193391423 569.745651968776 613.5329224543584 569.1931287133392 605.1076515172938 568.6406054579024 595.6512849678288 568.4991924259841 586.194918418364 568.3577793940658 577.5082476638474 567.9147017681578 568.821576909331 567.4716241422497 559.9482093109649 567.3264367825983 551.0748417125988 567.181249422947 542.6432636319357 566.8471689173416 534.2116855512728 566.5130884117361 525.8806522491593 566.5923922331001 517.5496189470458 566.671696054464 509.35747171641015 566.7540330274735 501.1653244857744 566.836370000483 493.2980595311851 566.9040422222301 485.4307945765959 566.9717144439771 477.1953425167468 567.1286262504397 468.95989045689777 567.2855380569022 461.0072106278893 567.4941743580882 453.0545307988809 567.7028106592742 445.7312726572111 568.0030014343279 438.4080145155413 568.3031922093815 430.19130167215127 568.9827956213658 421.9745888287612 569.6623990333501 415.2979085288306 569.8586068358637 408.62122822889995 570.0548146383774 402.1456888734153 570.4303274352437 395.6701495179306 570.80584023211 389.1090293025577 571.7007235021913 382.54790908718473 572.5956067722726 376.2346153110505 573.4828259191866 369.9213215349163 574.3700450661004 363.958095426995 575.2668283089582 357.9948693190737 576.1636115518161 352.23538581339204 577.0445150281953 346.4759023077104 577.9254185045745 336.90168446421137 579.7830022830334 327.3274666207124 581.6405860614923 322.24957747054094 583.2246006661964 317.17168832036947 584.8086152709004 309.1597346473283 587.3684121351254 301.1477809742872 589.9282089993503 293.2256269259924 593.2415757116198 285.3034728776977 596.5549424238893 278.7418609557917 599.8210265501654 272.1802490338858 603.0871106764414 265.86855673251637 606.8603398456337 259.556864431147 610.6335690148259 253.5054943075384 615.178347537287 247.45412418392985 619.723126059748 242.87625829154837 623.3165664282944 238.2983923991669 626.9100067968408 232.14013959039607 631.8842033201214 225.98188678162524 636.858399843402 222.19892108549732 639.9227953012596 218.41595538936943 642.9871907591171 214.58184086809734 647.7106560599725 210.74772634682523 652.4341213608278 205.9688495961836 657.0145343286529 201.18997284554192 661.5949472964778 195.89882928757044 662.2709807975878 190.60768572959898 662.9470142986976 190.599365234375 662.9414672851562 Z" fill="hsl(205, 69%, 50%)"></path></svg>