<svg xmlns="http://www.w3.org/2000/svg" version="1.1" xmlns:xlink="http://www.w3.org/1999/xlink" viewBox="0 0 1422 800" style="overflow: hidden; display: block;" width="1422" height="800"><defs></defs><g id="two-0" transform="matrix(1 0 0 1 0 0)" opacity="1"></g><path d="M 4.709540224480912 678.7810983474195 Q 4.709540224480912 678.7810983474195 16.48664865634868 669.4376431631167 28.26375708821645 660.0941879788138 32.53054036589607 659.5156580903652 36.7973236435757 658.9371282019164 41.750271788275256 658.394759107104 46.70321993297482 657.8523900122917 51.45828055722217 657.3299164018581 56.213341181469524 656.8074427914245 61.17801385126239 655.6327821495954 66.14268652105525 654.4581215077662 72.36835716498794 653.7604643066438 78.59402780892063 653.0628071055214 84.99431937525497 652.4931236311324 91.39461094158933 651.9234401567435 97.70675092409903 651.3491282717995 104.01889090660873 650.7748163868555 111.16637278471282 650.1707773415175 118.3138546628169 649.5667382961794 124.56905872657597 648.9698721771742 130.82426279033507 648.3730060581689 138.78668983869557 647.7199900689775 146.74911688705606 647.066974079786 152.6683434166568 647.2029997527648 158.5875699462575 647.3390254257436 165.23745565985223 646.7196873575397 171.88734137344693 646.1003492893358 179.36948695365467 646.1980074185909 186.85163253386241 646.295665547846 194.70474105529274 646.3951390483054 202.55784957672304 646.4946125487647 209.63523582206113 646.6045801408916 216.71262206739922 646.7145477330184 224.56237731352837 646.7976487322608 232.41213255965755 646.8807497315031 241.04741191364343 646.9320398047378 249.68269126762934 646.9833298779724 257.5456810240336 647.0556794296343 265.40867078043794 647.1280289812962 273.2662717186563 647.1950911695548 281.1238726568747 647.2621533578133 290.04188789246666 648.0887281623194 298.95990312805867 648.9153029668255 307.6011487059702 649.7328426226859 316.24239428388177 650.5503822785464 324.88175332961066 651.3652740746109 333.52111237533956 652.1801658706753 342.1606828480957 652.9928152960105 350.8002533208519 653.8054647213456 358.6854757371427 654.6447595820845 366.57069815343357 655.4840544428233 375.9368663851151 656.2544598829984 385.30303461679665 657.0248653231736 393.9717819647657 657.833970333349 402.6405293127347 658.6430753435245 412.0403954116756 659.4149050846565 421.44026151061644 660.1867348257884 430.86778337865564 660.9610787912013 440.29530524669485 661.7354227566143 447.9216970904309 661.7814324000384 455.5480889341669 661.8274420434625 466.19236162677134 663.363553106919 476.8366343193758 664.8996641703756 486.8299639707586 665.6180341793597 496.82329362214153 666.3364041883439 507.0384576666762 667.0777582867227 517.2536217112108 667.8191123851014 528.458667213955 669.3166986744689 539.6637127166991 670.8142849638364 550.4465647308816 671.5051143111784 561.229416745064 672.1959436585205 573.2207293044866 673.6548772342699 585.2120418639091 675.1138108100192 596.0175410273639 675.8242152090532 606.8230401908186 676.5346196080873 618.8240740957518 678.010538637125 630.8251080006851 679.4864576661628 642.6247620654576 680.9569582132285 654.42441613023 682.4274587602941 666.2212633267266 683.9067054517993 678.0181105232231 685.3859521433046 690.5686264692549 686.8127293512842 703.1191424152868 688.2395065592639 716.462316533861 689.6152617654419 729.8054906524351 690.99101697162 740.6387138061003 691.766765506092 751.4719369597656 692.5425140405641 762.755981761178 694.1347930837678 774.0400265625902 695.7270721269714 786.5412330730566 697.1800728970472 799.0424395835229 698.6330736671231 810.5949536493242 699.3644775247512 822.1474677151257 700.0958813823794 834.2124810168488 701.6493457888057 846.2774943185718 703.202810195232 856.2649731785266 704.0324973167317 866.2524520384815 704.8621844382315 877.2184807393855 705.6604752343915 888.1845094402897 706.4587660305516 899.9447199585317 707.206219456895 911.7049304767736 707.9536728832386 923.4908881890963 708.7055695602567 935.276845901419 709.4574662372747 946.7777692520024 709.4258680044235 958.2786926025856 709.3942697715722 969.2818658281271 709.4177920979372 980.2850390536686 709.4413144243022 991.2833878563231 709.4629517216642 1002.2817366589777 709.4845890190263 1013.7744705121758 708.6834324855429 1025.2672043653738 707.8822759520593 1038.373486670774 706.1832370605965 1051.479768976174 704.4841981691337 1059.4696873691362 703.8466450539631 1067.4596057620984 703.2090919387924 1077.1323413409598 701.0036786518126 1086.8050769198212 698.7982653648329 1097.0251378320463 696.4870194977659 1107.2451987442714 694.1757736306988 1117.467130432732 691.8596472588456 1127.6890621211924 689.5435208869924 1137.6240556461735 686.5100545479049 1147.5590491711548 683.4765882088174 1156.3665190169672 681.176524361819 1165.1739888627799 678.8764605148208 1173.8423200688585 676.6107069923385 1182.5106512749373 674.3449534698563 1190.3108550676325 672.1222474145366 1198.1110588603276 669.8995413592168 1205.9961138864473 667.6412832658448 1213.8811689125669 665.3830251724727 1220.8873633569965 663.1683391393765 1227.8935578014261 660.9536531062803 1235.5739259542424 657.9618114909865 1243.254294107059 654.9699698756928 1251.4262823494596 652.5796516494077 1259.59827059186 650.1893334231225 1266.6092208539635 647.9513772880507 1273.6201711160668 645.7134211529789 1280.1802694849798 644.1673598378084 1286.7403678538926 642.6212985226379 1292.7130614257362 640.4671535214421 1298.68575499758 638.3130085202464 1305.3280908948614 636.7200205397476 1311.970426792143 635.1270325592487 1317.9576241316274 632.9547776385799 1323.944821471112 630.7825227179111 1329.6997423073717 629.217889907519 1335.4546631436313 627.6532570971268 1340.9831136683647 626.1622613975909 1346.5115641930984 624.671265698055 1352.385325842851 623.8821849730855 1358.2590874926036 623.0931042481159 1362.5473876274436 621.7134436861577 1366.8356877622837 620.3337831241994 1372.7864177649076 619.5068165579612 1378.7371477675315 618.6798499917231 1383.9199234113003 617.2494585492739 1389.102699055069 615.8190671068246 1394.1063367937286 615.0347993608384 1399.1099745323882 614.2505316148522 1403.8427207738746 613.5294900309191 1408.5754670153613 612.808448446986 1414.4559706324976 615.1548356799464 1420.3364742496342 617.5012229129068 1420.3364803289423 617.5062229092109 1420.3364864082503 617.5112229055152 1420.3364924875582 617.5162229018194 1420.3364985668663 617.5212228981236 1415.2314558088733 619.880967044913 1410.1264130508805 622.2407111917023 1405.4314334614328 623.0910712346968 1400.7364538719848 623.9414312776912 1396.2991232769134 624.7416954680476 1391.861792681842 625.541959658404 1386.0456584863746 627.2408424363986 1380.2295242909072 628.9397252143931 1375.1945953576696 629.6972911027162 1370.159666424432 630.4548569910393 1365.006998289277 632.2045316164283 1359.8543301541217 633.9542062418172 1354.7291894629743 634.749710976819 1349.604048771827 635.5452157118206 1344.1334833749597 637.196910701675 1338.6629179780923 638.8486056915295 1333.405460457348 640.4397938756076 1328.1480029366035 642.0309820596857 1321.5650098381286 644.5592899075717 1314.9820167396538 647.0875977554578 1309.054161234078 648.6503707756624 1303.1263057285025 650.213143795867 1296.5286943801252 652.7596230444808 1289.9310830317481 655.3061022930946 1283.90752149644 656.9159154959538 1277.8839599611317 658.5257286988129 1270.7400757307814 661.0017517931095 1263.5961915004314 663.4777748874061 1256.055523748742 665.8145052448983 1248.5148559970528 668.1512356023906 1240.4956980184493 671.4311332492822 1232.4765400398455 674.7110308961738 1225.3278980786936 677.2101515298799 1218.1792561175416 679.709272163586 1210.3514300757133 682.1648807470847 1202.5236040338848 684.6204893305835 1194.5978024177148 687.1115903887455 1186.6720008015448 689.6026914469074 1178.0560473479131 692.0508571518237 1169.4400938942817 694.4990228567399 1160.9367952379016 696.9260681097007 1152.4334965815217 699.3531133626615 1141.9419754298947 702.5913862650884 1131.450454278268 705.8296591675153 1121.2457540909477 708.2273370305745 1111.0410539036275 710.6250148936338 1100.834933945058 713.0273495987635 1090.6288139864887 715.4296843038932 1079.9141889617697 717.9115383284266 1069.1995639370507 720.3933923529598 1061.3834511298346 721.3403092503597 1053.5673383226185 722.2872261477597 1039.9887761332288 723.7172958985611 1026.4102139438392 725.1473656493625 1014.3472104734276 725.9041422131456 1002.284207003016 726.6609187769286 991.2845785106122 726.6825551093228 980.2849500182082 726.7041914417171 969.2769035298304 726.7276002424467 958.2688570414527 726.7510090431763 946.2006290474615 726.7060548532249 934.1324010534701 726.6611006632736 922.349380928652 725.8417082696957 910.566360803834 725.0223158761178 898.7708865527602 724.1984792874982 886.9754123016864 723.3746426988786 875.9567661370993 722.6015323780596 864.938119972512 721.8284220572405 854.4722512608766 721.0736372363394 844.0063825492414 720.3188524154385 832.5021919437554 718.7429811407662 820.9980013382694 717.1671098660939 808.9682341561308 716.3138701753458 796.9384669739924 715.4606304845976 784.326001133753 713.7712262067349 771.7135352935137 712.0818219288723 760.9993767260701 710.544765282845 750.2852181586265 709.0077086368178 739.0806246810317 708.1988126661854 727.8760312034369 707.389916695553 714.5210048784986 705.6231542975303 701.1659785535602 703.8563918995076 688.5894690909548 702.1405915050465 676.0129596283494 700.4247911105854 664.2406554640395 698.7615211546552 652.4683512997295 697.0982511987248 640.6990256177351 695.4262867039799 628.9296999357407 693.7543222092349 617.374824409449 692.1009670178992 605.8199488831574 690.4476118265634 594.6143423682756 689.5734837793069 583.408735853394 688.6993557320504 571.8443130191437 687.028955093485 560.2798901848934 685.3585544549196 549.0649919553873 684.4649128166964 537.8500937258812 683.5712711784731 527.0706314405924 681.9396343556109 516.2911691553036 680.3079975327488 506.0797613712881 679.4779514791155 495.86835358727257 678.6479054254822 485.43544717645705 677.7819170175942 475.0025407656416 676.9159286097062 465.2600793197918 675.3360599365908 455.5176178739421 673.7561912634753 447.4045607255969 673.7888449499053 439.2915035772518 673.8214986363353 429.8638221173777 673.0245535436204 420.43614065750364 672.2276084509057 410.9939652056439 671.4281496439266 401.55178975378413 670.6286908369477 392.9233801314142 669.8665673009809 384.2949705090443 669.1044437650141 374.83242096704475 668.3035601427271 365.3698714250453 667.5026765204399 357.5289998472652 666.7706823231208 349.6881282694851 666.0386881258017 341.0436716508334 665.2800490112281 332.39921503218164 664.5214098966545 323.75454794318136 663.7650741115443 315.1098808541811 663.0087383264341 306.46721284779994 662.2551024454294 297.8245448414188 661.5014665644246 289.47188772054153 660.7701082634619 281.1192305996642 660.0387499624992 273.2639506900513 660.1058121507577 265.4086707804384 660.1728743390163 257.54568102406057 660.2452238906787 249.6826912676827 660.3175734423412 241.04741191717721 660.368863515645 232.4121325666717 660.4201535889488 224.56237778589087 660.5032545963243 216.7126230051101 660.5863556036998 209.63528760025505 660.696324152662 202.55795219540002 660.8062927016242 194.71168028280232 660.9058787709527 186.86540837020465 661.0054648402811 180.2062986287584 661.1163663659003 173.54718888731213 661.2272678915194 166.08196811266316 662.165976454382 158.61674733801422 663.1046850172445 153.49720072176086 663.2540666428822 148.37765410550747 663.4034482685199 140.65394208222256 664.32172082744 132.93023005893764 665.23999338636 126.60198614017025 666.214355813566 120.27374222140288 667.1887182407722 113.29310146398257 668.1559682660296 106.31246070656223 669.123218291287 100.05451609842629 670.1201964212363 93.79657149029033 671.1171745511856 87.64001422535074 672.1188921855762 81.48345696041113 673.1206098199668 76.71031688088064 674.00742359659 71.93717680135015 674.8942373732132 65.91628191082135 676.848798923643 59.89538702029257 678.803360474073 55.22289927733733 679.8521787838247 50.55041153438209 680.9009970935764 46.08771916360591 681.9302532595354 41.62502679282972 682.9595094254945 37.87709328760365 683.9918213373539 34.12915978237758 685.0241332492135 19.421640394945648 681.9123499704283 4.714121007513717 678.800566691643 4.7118306159973145 678.7908325195312 Z" fill="hsl(39, 100%, 89%)"></path></svg>