<svg xmlns="http://www.w3.org/2000/svg" version="1.1" xmlns:xlink="http://www.w3.org/1999/xlink" viewBox="0 0 2400 800" style="overflow: hidden; display: block;" width="2400" height="800"><defs></defs><g id="two-0" transform="matrix(1 0 0 1 0 0)" opacity="1"></g><path d="M 202.12742996018312 677.5738311735037 Q 202.12742996018312 677.5738311735037 202.2300934062589 670.9437558061932 202.3327568523347 664.3136804388826 204.6408815765086 659.9860594565063 206.94900630068247 655.65843847413 212.6614925081293 646.5654957253978 218.37397871557616 637.4725529766655 222.40184500043193 633.4661931407916 226.4297112852877 629.4598333049178 231.0449302106103 625.2004748673521 235.66014913593284 620.9411164297863 240.84785061842706 616.6166822124175 246.03555210092128 612.2922479950486 250.2215043241461 608.5041633731764 254.40745654737097 604.7160787513042 260.76952674731956 600.5261827090965 267.1315969472681 596.3362866668889 273.6765565247315 592.4083334682143 280.2215161021948 588.4803802695398 285.85143778497934 584.66313564348 291.4813594677638 580.8458910174204 299.1300322235438 576.9321958770932 306.77870497932383 573.0185007367661 314.6324372604852 569.2605880108517 322.4861695416465 565.5026752849374 331.4123560343231 562.0764454192963 340.3385425269997 558.6502155536554 351.139762250789 555.6141316388537 361.94098197457834 552.5780477240519 373.0391487837627 549.7907393827061 384.13731559294706 547.0034310413604 394.451178937505 544.3029108171768 404.76504228206295 541.6023905929931 416.38454246872465 539.5372504894069 428.00404265538634 537.4721103858207 439.883627871008 535.0971581310775 451.7632130866296 532.7222058763346 465.5470024598492 530.8305412915603 479.3307918330688 528.938876706786 492.93623659009575 528.1358159544573 506.5416813471226 527.3327552021285 520.093598135251 526.2282821620566 533.6455149233793 525.1238091219848 548.8542901724868 524.6402448944974 564.0630654215942 524.15668066701 579.124780462261 523.16388483131 594.1864955029279 522.1710889956099 610.8085774101628 521.7370119536433 627.4306593173977 521.3029349116767 644.3063719223127 521.127175531281 661.1820845272276 520.951416150885 678.9945559827946 520.8809087219354 696.8070274383616 520.8104012929857 715.0165646578855 520.7831887659594 733.2261018774093 520.755976238933 752.7330883592236 521.5712109003501 772.240074841038 522.3864455617672 791.9793613259922 523.5564176525322 811.7186478109462 524.7263897432971 829.9713456849524 526.0466642228446 848.2240435589587 527.3669387023921 867.701963523753 529.5913039508138 887.1798834885474 531.8156691992355 905.8187772580172 533.5523718239101 924.4576710274871 535.2890744485848 943.8108769543054 536.8447900690103 963.1640828811237 538.4005056894359 983.1463882385642 540.7278678471239 1003.1286935960048 543.0552300048117 1023.077026029169 545.684014985773 1043.025358462333 548.3127999667345 1062.6701150025192 550.2148022061965 1082.314871542705 552.1168044456585 1102.415531046744 554.5949550855605 1122.5161905507828 557.0731057254625 1142.5171807118854 559.7647867709738 1162.5181708729879 562.4564678164852 1182.9772908864056 564.3820144646099 1203.4364108998234 566.3075611127346 1224.6917298129572 568.793911595255 1245.947048726091 571.2802620777755 1267.7770865615462 573.1249567782344 1289.6071243970014 574.9696514786932 1311.1873645372484 576.5762461606288 1332.7676046774955 578.1828408425644 1355.0159120014002 579.6830422778885 1377.264219325305 581.1832437132125 1399.0154675553886 582.6406525730415 1420.7667157854721 584.0980614328705 1442.014232340495 584.7043608794868 1463.261748895518 585.3106603261031 1484.5673291884177 585.5715018813592 1505.8729094813177 585.8323434366152 1525.5711119094167 585.9438167868768 1545.2693143375159 586.0552901371384 1565.0968175938935 586.1027569077456 1584.9243208502712 586.1502236783529 1603.9919894276188 586.170423181991 1623.0596580049664 586.1906226856293 1641.8033706602423 586.1992210131575 1660.5470833155182 586.2078193406858 1678.0027018989979 585.4005463728864 1695.4583204824776 584.5932734050871 1712.688322145828 583.4370924498805 1729.9183238091784 582.280911494674 1747.0611190995598 580.9721635150747 1764.2039143899412 579.6634155354755 1780.4639044663372 578.2912889033921 1796.723894542733 576.9191622713088 1814.3314132865207 575.5129162511705 1831.9389320303083 574.1066702310321 1848.8795718423066 571.9097813710391 1865.8202116543048 569.7128925110461 1881.9691618211511 567.1558730949222 1898.1181119879975 564.5988536787983 1914.8545182824896 561.868400930118 1931.590924576982 559.1379481814379 1947.3038824453017 555.6005915244735 1963.0168403136215 552.0632348675092 1977.7845645459238 548.1368043162981 1992.5522887782258 544.210373765087 2007.0032333201807 540.092529772975 2021.4541778621358 535.974685780863 2035.424127228658 531.0660648522635 2049.39407659518 526.1574439236641 2062.566044237576 520.8571063542138 2075.738011879972 515.5567687847634 2088.356219024128 509.37440984337854 2100.974426168284 503.19205090199364 2111.4218478627354 498.0332136972464 2121.8692695571867 492.87437649249915 2131.8291281165384 487.5163196485537 2141.7889866758906 482.15826280460817 2151.751215733985 476.6101815682486 2161.71344479208 471.06210033188904 2171.67677299806 465.43081550298746 2181.64010120404 459.79953067408593 2190.5518600331543 454.2710882437542 2199.4636188622685 448.7426458134224 2208.1534234037676 443.1288933786591 2216.843227945267 437.5151409438957 2224.351508415958 432.04797473973906 2231.8597888866498 426.5808085355824 2239.5009367392595 421.41888456823983 2247.1420845918688 416.25696060089723 2253.314771398395 411.7815218727661 2259.487458204921 407.30608314463507 2265.5144441819275 403.16719583285806 2271.541430158934 399.028308521081 2276.4463602627175 395.49174334595835 2281.3512903665005 391.9551781708357 2285.4407221220604 389.1764393350521 2289.5301538776203 386.3977004992686 2297.3180739032346 381.25268085378246 2305.105993928849 376.10766120829635 2309.489863399501 373.73166696103476 2313.8737328701527 371.3556727137732 2316.6984283916727 370.14614922601663 2319.523123913193 368.9366257382601 2319.527687570825 368.93866853757004 2319.5322512284565 368.94071133688004 2319.536814886088 368.94275413619005 2319.54137854372 368.9447969355 2318.564688504727 374.0925077039302 2317.587998465734 379.2402184723605 2314.560430833112 386.329371244075 2311.53286320049 393.4185240157895 2308.637863918593 398.67800370340547 2305.742864636696 403.9374833910214 2302.30132304808 408.1020501039542 2298.859781459464 412.26661681688705 2293.748545537429 417.36367635600055 2288.6373096153943 422.46073589511406 2282.652007539924 427.0808505246923 2276.6667054644536 431.70096515427065 2269.9823972899685 436.2795748962633 2263.2980891154834 440.85818463825586 2256.094696272882 445.4445362675508 2248.8913034302814 450.0308878968458 2240.730185528051 455.94547288112403 2232.5690676258214 461.8600578654023 2223.6486321997845 467.6197668379398 2214.7281967737476 473.3794758104773 2205.3147500036966 479.20494813158416 2195.9013032336456 485.0304204526911 2185.857153766038 490.7070582437875 2175.8130042984303 496.383696034884 2165.6615192302525 502.03532063866226 2155.5100341620746 507.6869452424405 2145.1058801632853 513.2740078098027 2134.7017261644964 518.8610703771649 2124.1965281219614 524.0482844038725 2113.6913300794263 529.2354984305799 2100.1199086374745 535.841421583082 2086.5484871955223 542.4473447355841 2072.7639442171126 547.9781087180418 2058.979401238703 553.5088727004994 2044.1884116674842 558.6780669756081 2029.3974220962652 563.8472612507169 2014.6934344869182 568.0347939959604 1999.989446877571 572.222326741204 1984.6751961031327 576.2825499504527 1969.3609453286942 580.3427731597012 1952.8106508833598 584.0422164239471 1936.2603564380254 587.7416596881931 1919.4529788534232 590.4835623090428 1902.6456012688213 593.2254649298924 1886.0894725818248 595.8409696943717 1869.5333438948282 598.456474458851 1851.8906079684643 600.7267072060217 1834.2478720421002 602.9969399531925 1816.7042134396493 604.397962202208 1799.1605548371986 605.7989844512235 1782.7850842574635 607.1803918727098 1766.4096136777287 608.5617992941961 1749.1328407537762 609.8801519197331 1731.8560678298238 611.19850454527 1714.3203216152383 612.3719337282977 1696.7845754006526 613.5453629113254 1678.6599057212497 614.3678050895551 1660.535236041847 615.1902472677848 1641.7820948226015 615.1816664180008 1623.028953603356 615.1730855682167 1603.9419226344955 615.1528634781789 1584.854891665635 615.1326413881411 1564.9799883610817 615.0849985265695 1545.1050850565284 615.0373556649979 1525.3109378329882 614.9250416454271 1505.5167906094482 614.8127276258563 1483.972387174686 614.5470106638596 1462.427983739924 614.281293701863 1440.6289723488853 613.648631931414 1418.8299609578467 613.015970160965 1397.0720591034474 611.558176157111 1375.314157249048 610.100382153257 1352.9647918098315 608.5930857831781 1330.6154263706148 607.0857894130992 1308.8886495429476 605.4676391439027 1287.1618727152804 603.8494888747063 1264.8698451207167 601.9583514463527 1242.577817526153 600.0672140179992 1221.6451955492607 597.6151743065768 1200.7125735723685 595.1631345951545 1179.6827483390337 593.1725457111158 1158.6529231056988 591.1819568270771 1138.8096636512805 588.5110043766435 1118.966404196862 585.84005192621 1099.2409656855207 583.4037649228499 1079.5155271741792 580.9674779194897 1059.376895346375 579.0097035695668 1039.2382635185706 577.0519292196439 1019.5037008717213 574.4506899817859 999.7691382248719 571.8494507439278 980.3050032975377 569.5744796638605 960.8408683702037 567.2995085837933 941.303998236339 565.7297283449329 921.7671281024743 564.1599481060724 902.8249555262655 562.3943458768664 883.8827829500567 560.6287436476604 865.0079389546606 558.464194643155 846.1330949592644 556.2996456386496 828.0690728304326 554.9966691531297 810.0050507016007 553.6936926676098 790.5147027474322 552.5430300197968 771.0243547932637 551.3923673719839 752.1513966159291 550.599088051775 733.2784384385945 549.805808731566 715.1073010694959 549.8456604745646 696.9361637003973 549.8855122175632 679.2203223888471 549.9728030710255 661.5044810772969 550.0600939244878 644.857438142166 550.2556246203551 628.210395207035 550.4511553162223 612.1768767052465 550.8907019831103 596.143358203458 551.3302486499982 580.5898378492719 552.3930380116028 565.0363174950859 553.4558273732075 550.5789131558904 553.9571311478802 536.1215088166948 554.4584349225529 522.2403185025203 555.6712983581518 508.3591281883458 556.8841617937508 495.9340335720774 557.6818544044434 483.50893895580896 558.479547015136 470.71046269080614 560.3543609315883 457.9119864258034 562.2291748480407 445.76297089512514 564.8648044757795 433.61395536444684 567.5004341035182 423.3616750295986 569.5212923286574 413.10939469475034 571.5421505537965 402.77458687311764 574.6039409939394 392.43977905148495 577.6657314340822 381.91533472112604 580.7331950258024 371.39089039076714 583.8006586175225 362.129719847111 586.8369851392085 352.8685493034548 589.8733116608945 345.40341217454545 593.0315002510517 337.93827504563603 596.1896888412091 330.33492276566676 600.2209193224122 322.7315704856975 604.2521498036153 317.1214095228476 607.1105238707521 311.51124855999774 609.9688979378889 305.2028471088737 614.3823276993362 298.8944456577496 618.7957574607836 292.75640406822674 622.6787703646072 286.61836247870394 626.5617832684308 282.39700966625855 629.1952218458421 278.1756568538132 631.8286604232533 272.86660819596875 636.3918746880763 267.5575595381243 640.9550889528992 261.959450339403 644.7254431890594 256.36134114068176 648.4957974252196 251.00533226111082 651.727590903816 245.64932338153992 654.9593843824125 238.147472144287 658.7208091121436 230.64562090703413 662.4822338418745 222.8397095389464 668.4793084397772 215.03379817085866 674.4763830376799 208.5884227527987 676.031354057088 202.14304733473875 677.5863250764963 202.13523864746094 677.580078125 Z" fill="hsl(205, 69%, 50%)"></path></svg>