<svg xmlns="http://www.w3.org/2000/svg" version="1.1" xmlns:xlink="http://www.w3.org/1999/xlink" xmlns:svgjs="http://svgjs.dev/svgjs" viewBox="0 0 2400 800" opacity="1"><defs><linearGradient x1="50%" y1="0%" x2="50%" y2="100%" id="sssurf-grad"><stop stop-color="hsl(208, 77%, 50%)" stop-opacity="1" offset="0%"></stop><stop stop-color="hsl(208, 74%, 93%)" stop-opacity="1" offset="100%"></stop></linearGradient></defs><g fill="url(#sssurf-grad)" transform="matrix(1,0,0,1,-1.936279296875,157.8111114501953)"><path d="M-10,10C158.75,48.125,464.58333333333337,211.95833333333334,800,193C1135.4166666666665,174.04166666666666,1266.6666666666665,-61,1600,-81C1933.3333333333335,-101,2181.25,-3.208333333333343,2400,97C2618.75,197.20833333333334,3254.1666666666665,232.70833333333331,2650,400C2045.8333333333335,567.2916666666667,156.25,795.8333333333334,-500,900" transform="matrix(1,0,0,1,0,52)" opacity="0.05"></path><path d="M-10,10C158.75,48.125,464.58333333333337,211.95833333333334,800,193C1135.4166666666665,174.04166666666666,1266.6666666666665,-61,1600,-81C1933.3333333333335,-101,2181.25,-3.208333333333343,2400,97C2618.75,197.20833333333334,3254.1666666666665,232.70833333333331,2650,400C2045.8333333333335,567.2916666666667,156.25,795.8333333333334,-500,900" transform="matrix(1,0,0,1,0,104)" opacity="0.19"></path><path d="M-10,10C158.75,48.125,464.58333333333337,211.95833333333334,800,193C1135.4166666666665,174.04166666666666,1266.6666666666665,-61,1600,-81C1933.3333333333335,-101,2181.25,-3.208333333333343,2400,97C2618.75,197.20833333333334,3254.1666666666665,232.70833333333331,2650,400C2045.8333333333335,567.2916666666667,156.25,795.8333333333334,-500,900" transform="matrix(1,0,0,1,0,156)" opacity="0.32"></path><path d="M-10,10C158.75,48.125,464.58333333333337,211.95833333333334,800,193C1135.4166666666665,174.04166666666666,1266.6666666666665,-61,1600,-81C1933.3333333333335,-101,2181.25,-3.208333333333343,2400,97C2618.75,197.20833333333334,3254.1666666666665,232.70833333333331,2650,400C2045.8333333333335,567.2916666666667,156.25,795.8333333333334,-500,900" transform="matrix(1,0,0,1,0,208)" opacity="0.46"></path><path d="M-10,10C158.75,48.125,464.58333333333337,211.95833333333334,800,193C1135.4166666666665,174.04166666666666,1266.6666666666665,-61,1600,-81C1933.3333333333335,-101,2181.25,-3.208333333333343,2400,97C2618.75,197.20833333333334,3254.1666666666665,232.70833333333331,2650,400C2045.8333333333335,567.2916666666667,156.25,795.8333333333334,-500,900" transform="matrix(1,0,0,1,0,260)" opacity="0.59"></path><path d="M-10,10C158.75,48.125,464.58333333333337,211.95833333333334,800,193C1135.4166666666665,174.04166666666666,1266.6666666666665,-61,1600,-81C1933.3333333333335,-101,2181.25,-3.208333333333343,2400,97C2618.75,197.20833333333334,3254.1666666666665,232.70833333333331,2650,400C2045.8333333333335,567.2916666666667,156.25,795.8333333333334,-500,900" transform="matrix(1,0,0,1,0,312)" opacity="0.73"></path><path d="M-10,10C158.75,48.125,464.58333333333337,211.95833333333334,800,193C1135.4166666666665,174.04166666666666,1266.6666666666665,-61,1600,-81C1933.3333333333335,-101,2181.25,-3.208333333333343,2400,97C2618.75,197.20833333333334,3254.1666666666665,232.70833333333331,2650,400C2045.8333333333335,567.2916666666667,156.25,795.8333333333334,-500,900" transform="matrix(1,0,0,1,0,364)" opacity="0.86"></path><path d="M-10,10C158.75,48.125,464.58333333333337,211.95833333333334,800,193C1135.4166666666665,174.04166666666666,1266.6666666666665,-61,1600,-81C1933.3333333333335,-101,2181.25,-3.208333333333343,2400,97C2618.75,197.20833333333334,3254.1666666666665,232.70833333333331,2650,400C2045.8333333333335,567.2916666666667,156.25,795.8333333333334,-500,900" transform="matrix(1,0,0,1,0,416)" opacity="1.00"></path></g></svg>